<svg width="80" height="80" viewBox="0 0 80 80" fill="none" xmlns="http://www.w3.org/2000/svg">
<g clip-path="url(#clip0_54_24)">
<path d="M79.7633 36.7452L65.5445 7.56703C65.1518 6.76109 64.3339 6.25 63.4376 6.25H16.5625C15.6661 6.25 14.8483 6.76125 14.4556 7.56703L0.236864 36.7452C-0.0956367 37.4277 -0.0770429 38.229 0.286708 38.8952C0.650458 39.5615 1.31452 40.0104 2.06843 40.0994C4.06468 40.3355 6.01625 40.3705 7.96875 40.218V71.4064C7.96875 72.7008 9.01813 73.7501 10.3125 73.7501C13.3978 73.7501 67.6664 73.7501 69.6876 73.7501C70.982 73.7501 72.0314 72.7008 72.0314 71.4064V40.219C73.9867 40.3716 75.9618 40.3323 77.9317 40.0993C78.6856 40.0102 79.3497 39.5613 79.7134 38.8951C80.077 38.2288 80.0958 37.4276 79.7633 36.7452ZM47.7674 10.9375L54.5363 30.1529C47.8046 37.4849 32.1218 37.4043 25.4638 30.1529L32.2327 10.9375H47.7674ZM6.00125 35.6165L18.0275 10.9375H27.2628L20.7257 29.495C17.3919 33.7191 11.4044 35.5376 6.00125 35.6165ZM28.2813 69.0626H12.6563V62.0314H28.2813V69.0626ZM47.0313 69.0626H32.9688V50.3126H47.0313V69.0626ZM67.3439 69.0626H51.7188V62.0314H67.3439V69.0626ZM67.3439 57.3438H51.7188V47.9688C51.7188 46.6745 50.6695 45.6251 49.3751 45.6251H30.625C29.3307 45.6251 28.2813 46.6745 28.2813 47.9688V57.3438H12.6563V39.4719C16.371 38.5615 20.0196 36.8262 22.8132 34.1486C31.4068 42.3793 48.6068 42.3663 57.187 34.1486C59.9562 36.8027 63.5892 38.5516 67.3439 39.4719V57.3438ZM59.2743 29.4947L52.7371 10.9375H61.9724L73.9989 35.6166C68.6151 35.5372 62.6207 33.7349 59.2743 29.4947Z" fill="white"/>
</g>
<defs>
<clipPath id="clip0_54_24">
<rect width="80" height="80" fill="white"/>
</clipPath>
</defs>
</svg>
